<?xml version="1.0" standalone="no"?><!DOCTYPE svg PUBLIC "-//W3C//DTD SVG 1.1//EN" "http://www.w3.org/Graphics/SVG/1.1/DTD/svg11.dtd"><svg t="1742203832046" class="icon" viewBox="0 0 1082 1024" version="1.1" xmlns="http://www.w3.org/2000/svg" p-id="4559" xmlns:xlink="http://www.w3.org/1999/xlink" width="211.328125" height="200"><path d="M61.156235 484.357382c0 91.306259 26.297181 173.500239 78.891543 246.398471a415.128524 415.128524 0 0 0 204.261825 153.135212c3.302437 0.611562 6.115624 0.856187 8.256092 0.856188a10.335404 10.335404 0 0 0 5.381749-1.223125 17.123746 17.123746 0 0 0 3.302437-2.507406c0.795031-0.856187 1.406593-2.201624 1.651218-4.158624a31.18968 31.18968 0 0 0 0.428094-4.097467v-82.989011c-20.365026 2.201624-38.528428 2.079312-54.490206-0.428094a110.020067 110.020067 0 0 1-37.549928-11.619685 97.238414 97.238414 0 0 1-23.973244-19.32537 73.142857 73.142857 0 0 1-14.065934-21.037745c-2.446249-6.360248-4.892499-12.965122-7.338749-19.81462a204.751075 204.751075 0 0 0-4.586717-11.986622 75.222169 75.222169 0 0 0-22.26087-22.688963 327.369326 327.369326 0 0 1-22.322026-16.512184c-4.953655-4.158624-5.504061-8.133779-1.651218-11.986622 27.520306-14.310559 58.587673 3.852843 93.263258 54.490206 18.713808 28.131868 51.49355 36.326804 98.27807 24.829431 5.504061-22.627807 16.512183-41.830865 33.024367-57.853798-63.847109-11.558528-111.182035-35.225991-142.004778-70.941233-30.822742-35.837554-46.234114-79.319637-46.234113-130.507406 0-47.885332 15.10559-89.471572 45.377926-124.697563-12.108935-35.715241-10.39656-73.387482 4.953655-113.077879 15.961777-1.100812 33.880554 2.079312 53.695174 9.479217 19.81462 7.461061 33.697086 13.760153 41.647397 18.958433 8.011467 5.259436 15.044434 10.090779 21.098901 14.494028a392.806498 392.806498 0 0 1 106.106068-13.209747c39.323459 0 74.977544 4.403249 106.901098 13.209747 7.15528-4.953655 15.10559-10.151935 23.912088-15.655997 8.806498-5.504061 22.322026-11.436216 40.485428-17.735308 18.163402-6.360248 34.92021-8.989967 50.331581-7.95031 14.860965 39.13999 16.817965 76.261825 5.809843 111.487816 30.822742 35.225991 46.234114 76.812231 46.234113 124.697563 0 51.187769-15.717152 94.792164-47.090301 130.874343-31.373149 36.082179-78.708075 59.566173-142.004777 70.574296 23.667463 23.667463 35.470616 52.288581 35.470616 85.863354v106.473005c0 0.550406 0.305781 1.406593 0.856187 2.446249 0 3.363593 0.183469 5.809842 0.428094 7.461061 0.305781 1.651218 1.528906 3.302437 3.73053 4.953655 2.201624 1.712375 5.504061 2.507406 9.90731 2.44625 84.212136-28.559962 153.135213-79.625418 206.830387-153.074057a410.358337 410.358337 0 0 0 80.481606-248.110845c0-57.242236-11.130435-111.977066-33.452461-164.265648a423.445772 423.445772 0 0 0-89.960822-135.032967 423.445772 423.445772 0 0 0-134.971811-89.899665 414.578118 414.578118 0 0 0-164.326803-33.513617 414.639274 414.639274 0 0 0-164.265648 33.45246 423.384615 423.384615 0 0 0-134.97181 89.960822 423.323459 423.323459 0 0 0-90.021978 135.032967A414.578118 414.578118 0 0 0 61.156235 484.296226z" fill="#FFFFFF" p-id="4560"></path></svg>